<?xml version="1.0" standalone="no"?>
<!DOCTYPE svg PUBLIC "-//W3C//DTD SVG 20010904//EN"
 "http://www.w3.org/TR/2001/REC-SVG-20010904/DTD/svg10.dtd">
<svg version="1.0" xmlns="http://www.w3.org/2000/svg"
 width="64.000000pt" height="64.000000pt" viewBox="0 0 64.000000 64.000000"
 preserveAspectRatio="xMidYMid meet">

<g transform="translate(0.000000,64.000000) scale(0.100000,-0.100000)"
fill="#000000" stroke="none">
<path d="M120 530 c0 -6 73 -10 200 -10 127 0 200 4 200 10 0 6 -73 10 -200
10 -127 0 -200 -4 -200 -10z"/>
<path d="M90 480 c-18 -18 -20 -33 -20 -180 0 -216 -20 -200 250 -200 270 0
250 -16 250 200 0 216 20 200 -250 200 -197 0 -211 -1 -230 -20z m450 -9 c0
-11 -206 -181 -220 -181 -14 0 -220 170 -220 181 0 5 99 9 220 9 121 0 220 -4
220 -9z m-312 -142 c-2 -3 -33 -32 -70 -63 l-68 -57 0 121 0 121 70 -58 c39
-31 69 -60 68 -64z m322 0 l0 -120 -67 57 c-38 32 -68 61 -68 65 0 7 123 117
133 119 1 0 2 -54 2 -121z m-265 -39 c10 -17 55 -11 82 10 22 17 29 18 42 7
134 -110 142 -120 139 -151 l-3 -31 -225 0 -225 0 -3 32 c-3 28 4 37 74 96 62
52 82 64 95 56 10 -5 21 -14 24 -19z"/>
<path d="M250 190 c0 -6 30 -10 70 -10 40 0 70 4 70 10 0 6 -30 10 -70 10 -40
0 -70 -4 -70 -10z"/>
<path d="M180 150 c0 -6 53 -10 140 -10 87 0 140 4 140 10 0 6 -53 10 -140 10
-87 0 -140 -4 -140 -10z"/>
</g>
</svg>
